<svg xmlns="http://www.w3.org/2000/svg" width="128" height="128" viewBox="0 0 128 128">
  <title>TROPHY</title>
  <g>
    <path d="M107.49,22.23H89.67V12.8a1.75,1.75,0,0,0-1.75-1.75H40.08a1.75,1.75,0,0,0-1.75,1.75v9.43H20.51a1.75,1.75,0,0,0-1.75,1.75V33.5A26.308,26.308,0,0,0,39.114,59.119,16.885,16.885,0,0,0,50.358,70.27a5.885,5.885,0,0,0,4.982,9.035h1.011A31.433,31.433,0,0,1,46.18,96.826H41.288a1.75,1.75,0,0,0-1.681,1.262l-4.833,16.624a1.751,1.751,0,0,0,1.681,2.238h55.09a1.751,1.751,0,0,0,1.681-2.238L88.393,98.088a1.75,1.75,0,0,0-1.681-1.262H81.843A33.615,33.615,0,0,1,71.691,79.305h.969a5.885,5.885,0,0,0,4.982-9.035A16.885,16.885,0,0,0,88.886,59.119,26.308,26.308,0,0,0,109.24,33.5V23.98A1.751,1.751,0,0,0,107.49,22.23ZM89.67,32.91h8.257a17.805,17.805,0,0,1-5.181,10.969,18.341,18.341,0,0,1-3.076,2.438ZM38.33,46.335A17.979,17.979,0,0,1,30.075,32.91H38.33ZM22.26,33.5V25.73H38.33v3.68H28.24a1.75,1.75,0,0,0-1.75,1.75A21.472,21.472,0,0,0,38.33,50.349v3.7c0,.421.021.842.052,1.261A22.819,22.819,0,0,1,22.26,33.5Zm66.954,79.95H38.786L42.6,100.326H85.4ZM71.125,88.228a37.271,37.271,0,0,0,5.8,8.6H51.182a34.7,34.7,0,0,0,8.723-17.521h8.219A37.381,37.381,0,0,0,71.125,88.228ZM72.66,75.805H55.34a2.4,2.4,0,1,1,0-4.792c.01,0,.019,0,.029,0H72.631c.01,0,.019,0,.029,0a2.4,2.4,0,1,1,0,4.792Zm.05-8.3H55.29A13.447,13.447,0,0,1,41.83,54.05V14.55H86.17v39.5A13.448,13.448,0,0,1,72.71,67.51ZM105.74,33.5A22.819,22.819,0,0,1,89.618,55.311c.031-.419.052-.84.052-1.261V50.337a21.571,21.571,0,0,0,5.546-3.978,21.318,21.318,0,0,0,6.294-15.2,1.75,1.75,0,0,0-1.75-1.75H89.67V25.73h16.07Z"/>
    <path d="M70.685,104.639H57.315a1.75,1.75,0,0,0,0,3.5h13.37a1.75,1.75,0,0,0,0-3.5Z"/>
    <path d="M64,38.849a9.087,9.087,0,1,0,9.087,9.086A9.1,9.1,0,0,0,64,38.849Zm0,14.674a5.587,5.587,0,1,1,5.587-5.588A5.593,5.593,0,0,1,64,53.523Z"/>
    <path d="M64,35.778a5.37,5.37,0,1,0-5.37-5.369A5.375,5.375,0,0,0,64,35.778Zm0-7.239a1.87,1.87,0,1,1-1.87,1.87A1.872,1.872,0,0,1,64,28.539Z"/>
    <path d="M50.464,31.463a5.37,5.37,0,1,0,5.37,5.37A5.375,5.375,0,0,0,50.464,31.463Zm0,7.239a1.87,1.87,0,1,1,1.87-1.869A1.872,1.872,0,0,1,50.464,38.7Z"/>
    <path d="M77.536,31.463a5.37,5.37,0,1,0,5.369,5.37A5.376,5.376,0,0,0,77.536,31.463Zm0,7.239a1.87,1.87,0,1,1,1.869-1.869A1.872,1.872,0,0,1,77.536,38.7Z"/>
  </g>
</svg>
