<svg xmlns="http://www.w3.org/2000/svg" viewBox="0 0 48 48"><title>27-jude</title><g id="_27-jude" data-name="27-jude"><path d="M4.989,39c-.158,0-.318-.008-.477-.023A5.133,5.133,0,0,1,0,33.828V1A1,1,0,0,1,1,0H11a5.006,5.006,0,0,1,5,5H39a3,3,0,0,1,3,3v5H40V8a1,1,0,0,0-1-1H15a1,1,0,0,1-1-1V5a3,3,0,0,0-3-3H2V33.828a3.118,3.118,0,0,0,2.7,3.158A3,3,0,0,0,8,34V30h2v4a5,5,0,0,1-5.011,5Z"/><path d="M10,14H8V12a3,3,0,0,1,3-3H41v2H11a1,1,0,0,0-1,1Z"/><path d="M24,6H22V5a3,3,0,0,0-3-3H11V0h8a5.006,5.006,0,0,1,5,5Z"/><rect x="5" y="37" width="13" height="2"/><path d="M34,32a7.008,7.008,0,0,1-7-7V19a7,7,0,0,1,14,0v6A7.008,7.008,0,0,1,34,32Zm0-18a5.006,5.006,0,0,0-5,5v6a5,5,0,0,0,10,0V19A5.006,5.006,0,0,0,34,14Z"/><path d="M40,22c-4.8,0-7.3-.848-8.6-1.773A4.106,4.106,0,0,1,28,22l-.007-2A1.885,1.885,0,0,0,30,18a1,1,0,0,1,2,0h0c.018,0,.708,2,8,2Z"/><path d="M41,26H40V21h1a1,1,0,0,1,1,1v3A1,1,0,0,1,41,26Z"/><path d="M28,26H27a1,1,0,0,1-1-1V22a1,1,0,0,1,1-1h1Z"/><path d="M34,35a3,3,0,0,1-3-3V31h2v1a1,1,0,0,0,2,0V31h2v1A3,3,0,0,1,34,35Z"/><path d="M47,48H21a1,1,0,0,1-1-1V41a9.01,9.01,0,0,1,9-9v2a7.008,7.008,0,0,0-7,7v5H46V41a7.008,7.008,0,0,0-7-7V32a9.01,9.01,0,0,1,9,9v6A1,1,0,0,1,47,48Z"/><path d="M34,44a1,1,0,0,1-.707-.293l-9-9,1.414-1.414L34,41.586l8.293-8.293,1.414,1.414-9,9A1,1,0,0,1,34,44Z"/><rect x="33" y="43" width="2" height="4"/><rect x="25" y="43" width="2" height="4"/><rect x="41" y="43" width="2" height="4"/><path d="M34,32a7.008,7.008,0,0,1-7-7V19a7,7,0,0,1,14,0v6A7.008,7.008,0,0,1,34,32Zm0-18a5.006,5.006,0,0,0-5,5v6a5,5,0,0,0,10,0V19A5.006,5.006,0,0,0,34,14Z"/><path d="M40,22c-4.8,0-7.3-.848-8.6-1.773A4.106,4.106,0,0,1,28,22l-.007-2A1.885,1.885,0,0,0,30,18a1,1,0,0,1,2,0h0c.018,0,.708,2,8,2Z"/><path d="M41,26H40V21h1a1,1,0,0,1,1,1v3A1,1,0,0,1,41,26Z"/><path d="M28,26H27a1,1,0,0,1-1-1V22a1,1,0,0,1,1-1h1Z"/><path d="M34,35a3,3,0,0,1-3-3V31h2v1a1,1,0,0,0,2,0V31h2v1A3,3,0,0,1,34,35Z"/><path d="M47,48H21a1,1,0,0,1-1-1V41a9.01,9.01,0,0,1,9-9v2a7.008,7.008,0,0,0-7,7v5H46V41a7.008,7.008,0,0,0-7-7V32a9.01,9.01,0,0,1,9,9v6A1,1,0,0,1,47,48Z"/><path d="M34,44a1,1,0,0,1-.707-.293l-9-9,1.414-1.414L34,41.586l8.293-8.293,1.414,1.414-9,9A1,1,0,0,1,34,44Z"/><rect x="33" y="43" width="2" height="4"/><rect x="25" y="43" width="2" height="4"/><rect x="41" y="43" width="2" height="4"/><path d="M17,32a1,1,0,0,1-.707-.293L12.586,28H8a3,3,0,0,1-3-3V19a3,3,0,0,1,3-3H18a3,3,0,0,1,3,3v6a3,3,0,0,1-3,3v3a1,1,0,0,1-.617.924A.987.987,0,0,1,17,32ZM8,18a1,1,0,0,0-1,1v6a1,1,0,0,0,1,1h5a1,1,0,0,1,.707.293L16,28.586V27a1,1,0,0,1,1-1h1a1,1,0,0,0,1-1V19a1,1,0,0,0-1-1Z"/><rect x="9" y="21" width="8" height="2"/></g></svg>